<?xml version="1.0" encoding="utf-8"?>
<!-- Generator: Adobe Illustrator 27.0.1, SVG Export Plug-In . SVG Version: 6.00 Build 0)  -->
<svg version="1.1" id="Layer_1" xmlns="http://www.w3.org/2000/svg" xmlns:xlink="http://www.w3.org/1999/xlink" x="0px" y="0px"
	 viewBox="0 0 40 40" style="enable-background:new 0 0 40 40;" xml:space="preserve">
<style type="text/css">
	.st0{fill:#36080A;}
	.st1{fill:url(#SVGID_1_);}
</style>
<g>
	<g>
		<path class="st0" d="M29.6,23.1h-3.4c-0.3,0-0.6-0.1-0.7-0.4c-0.2-0.2-0.2-0.5-0.2-0.8c0-0.1,0-0.2,0.1-0.2
			c0.2-0.4,0.2-0.9,0.1-1.3c-0.2-1-1-1.8-2-2c-0.7-0.1-1.5,0.1-2,0.5c-0.6,0.5-0.9,1.2-0.9,1.9c0,0.3,0.1,0.7,0.2,1
			c0.1,0.3,0.1,0.6-0.1,0.8c-0.2,0.3-0.4,0.4-0.7,0.4h-2.9v-2.8c0-0.7-0.3-1.3-0.8-1.7c-0.5-0.4-1.2-0.5-1.9-0.4
			c-0.1,0-0.2,0.1-0.3,0.1c-0.2,0.1-0.4,0.1-0.7,0.1c-0.5-0.1-0.9-0.5-1-1c-0.1-0.4,0-0.7,0.3-1c0.3-0.4,0.9-0.6,1.5-0.3
			c0.7,0.3,1.4,0.2,2-0.2c0.6-0.4,1-1,1-1.8v-3.5c0-0.3-0.3-0.6-0.6-0.6H3.3c-0.3,0-0.6,0.3-0.6,0.6v13.2v0v13.2
			c0,0.3,0.3,0.6,0.6,0.6h13.2h0h13.2c0.3,0,0.6-0.3,0.6-0.6V23.7C30.2,23.4,29.9,23.1,29.6,23.1z M15.8,11.2v2.9
			c0,0.3-0.1,0.6-0.4,0.7c-0.3,0.2-0.6,0.2-0.8,0.1c-1-0.4-2.2-0.2-2.9,0.7c-0.5,0.6-0.7,1.3-0.5,2c0.2,1,1,1.8,2,2
			c0.4,0.1,0.9,0,1.3-0.1c0.1,0,0.1,0,0.2-0.1c0.3-0.1,0.6,0,0.8,0.2c0.2,0.2,0.4,0.4,0.4,0.7v2.8H13c0,0,0,0,0,0h-0.1
			c-0.7,0-1.4,0.4-1.8,0.9c-0.4,0.6-0.4,1.3-0.2,2c0.1,0.1,0.1,0.3,0.1,0.5c0,0,0,0.1,0,0.1c0,0.1,0,0.3-0.1,0.4c0,0,0,0.1,0,0.1
			c-0.1,0.1-0.2,0.3-0.3,0.4c0,0-0.1,0-0.1,0.1c-0.1,0.1-0.2,0.1-0.4,0.2c0,0-0.1,0-0.1,0c-0.1,0-0.2,0-0.3,0c-0.1,0-0.2,0-0.3,0
			c0,0-0.1,0-0.1,0c-0.1,0-0.3-0.1-0.4-0.2c0,0-0.1,0-0.1-0.1c-0.1-0.1-0.2-0.2-0.3-0.4c0,0,0,0,0-0.1c-0.1-0.1-0.1-0.3-0.1-0.4
			c0,0,0-0.1,0-0.1c0-0.2,0-0.3,0.1-0.5c0.3-0.7,0.2-1.4-0.2-2c-0.4-0.6-1-1-1.8-1H3.9V11.2H15.8z M3.9,24.3h2.8
			c0.3,0,0.6,0.1,0.7,0.4c0.2,0.2,0.2,0.5,0.2,0.8c0,0.1,0,0.1-0.1,0.2c0,0,0,0.1,0,0.1c0,0.1-0.1,0.3-0.1,0.4c0,0.1,0,0.1,0,0.2
			c0,0,0,0.1,0,0.1c0,0.1,0,0.2,0,0.3c0,0,0,0.1,0,0.1c0,0,0,0,0,0c0,0.2,0.1,0.4,0.2,0.6c0,0,0,0.1,0.1,0.1C7.8,28,8,28.1,8.1,28.2
			c0,0,0.1,0.1,0.1,0.1c0,0,0.1,0.1,0.1,0.1c0.1,0.1,0.3,0.2,0.4,0.3c0,0,0,0,0.1,0c0.2,0.1,0.4,0.2,0.6,0.2c0,0,0.1,0,0.1,0
			c0.1,0,0.2,0,0.3,0c0,0,0.1,0,0.1,0c0,0,0,0,0.1,0c0,0,0.1,0,0.1,0c0.1,0,0.2,0,0.4,0c0.1,0,0.1-0.1,0.2-0.1
			c0.1,0,0.2-0.1,0.3-0.1c0.2-0.1,0.3-0.1,0.4-0.2c0.1,0,0.1-0.1,0.2-0.1c0,0,0.1-0.1,0.1-0.1c0,0,0.1-0.1,0.1-0.1
			c0.1-0.1,0.2-0.3,0.3-0.5c0,0,0-0.1,0.1-0.1c0.1-0.2,0.2-0.4,0.2-0.6c0,0,0,0,0,0c0,0,0-0.1,0-0.1c0-0.1,0-0.2,0-0.3
			c0,0,0-0.1,0-0.1c0-0.1,0-0.1,0-0.2c0-0.1-0.1-0.3-0.1-0.4c0,0,0-0.1,0-0.1c0-0.1,0-0.1-0.1-0.2c-0.1-0.3,0-0.6,0.2-0.8
			c0.2-0.2,0.4-0.4,0.7-0.4h2.8v2.8c0,0,0,0,0,0v0.1c0,0.7,0.4,1.4,0.9,1.8c0.6,0.4,1.3,0.4,2,0.2c0.2-0.1,0.5-0.1,0.8-0.1
			c0,0,0,0,0.1,0c0.1,0,0.2,0.1,0.3,0.1c0,0,0.1,0.1,0.1,0.1c0.1,0,0.1,0.1,0.2,0.2c0,0,0.1,0.1,0.1,0.1c0.1,0.1,0.1,0.2,0.2,0.3
			c0,0,0,0.1,0,0.1c0,0.1,0,0.2,0,0.2c0,0.1,0,0.2,0,0.3c0,0,0,0,0,0.1c0,0.1-0.1,0.3-0.2,0.4c0,0,0,0-0.1,0.1
			c-0.1,0.1-0.1,0.1-0.2,0.2c0,0,0,0-0.1,0c-0.1,0.1-0.2,0.1-0.3,0.1c0,0,0,0,0,0c-0.3,0.1-0.5,0-0.8-0.1c-0.7-0.3-1.4-0.2-2,0.2
			c-0.6,0.4-1,1-1,1.8v2.9H3.9V24.3z M29,36.3H17.1v-2.8c0-0.3,0.1-0.6,0.4-0.7c0.2-0.2,0.5-0.2,0.8-0.2c0.1,0,0.1,0,0.2,0.1
			c0.4,0.2,0.9,0.2,1.3,0.1c0,0,0.1,0,0.1,0c0,0,0.1,0,0.1,0c0.2-0.1,0.4-0.1,0.6-0.2c0.1,0,0.1-0.1,0.2-0.2
			c0.1-0.1,0.3-0.2,0.4-0.3c0,0,0.1,0,0.1-0.1c0.1-0.1,0.2-0.2,0.2-0.4c0,0,0-0.1,0.1-0.1c0.1-0.2,0.2-0.4,0.2-0.6c0,0,0-0.1,0-0.1
			c0-0.1,0-0.1,0-0.2c0-0.1,0-0.1,0-0.2c0-0.1,0-0.2,0-0.3c0,0,0-0.1,0-0.1c0,0,0,0,0-0.1c-0.1-0.4-0.2-0.8-0.5-1.1
			c0,0-0.1-0.1-0.1-0.1c-0.1-0.1-0.2-0.2-0.3-0.3c-0.1-0.1-0.2-0.2-0.3-0.2C20.4,28.1,20.2,28,20,28c-0.1,0-0.1-0.1-0.2-0.1
			c0,0-0.1,0-0.1,0c-0.4-0.1-0.9,0-1.3,0.1c-0.1,0-0.1,0-0.2,0.1c-0.3,0.1-0.6,0-0.8-0.2c-0.2-0.2-0.4-0.4-0.4-0.7v-2.8H20
			c0.7,0,1.4-0.4,1.8-0.9c0.4-0.6,0.4-1.3,0.2-2c-0.1-0.2-0.1-0.3-0.1-0.5c0-0.4,0.2-0.7,0.4-1c0.3-0.2,0.6-0.3,1-0.3
			c0.5,0.1,0.9,0.5,1,1c0,0.2,0,0.5-0.1,0.7c0,0.1-0.1,0.2-0.1,0.3c-0.2,0.6,0,1.3,0.4,1.9c0.4,0.5,1,0.8,1.7,0.8H29V36.3z"/>
		<path class="st0" d="M37,8.4L25.2,2.6c-0.2-0.1-0.3-0.1-0.5,0c-0.2,0.1-0.3,0.2-0.4,0.3l-1.5,3.1c-0.1,0.3-0.4,0.4-0.6,0.5
			c-0.3,0.1-0.6,0-0.8-0.2l-0.2-0.2c-0.3-0.3-0.7-0.6-1.1-0.7c-1-0.3-2.1,0.1-2.7,0.9c-0.4,0.6-0.6,1.3-0.4,2
			c0.2,0.7,0.6,1.3,1.3,1.6c0.3,0.2,0.6,0.2,1,0.2c0.3,0,0.6,0.2,0.7,0.4c0.2,0.3,0.2,0.6,0,0.8l-1.6,3.2c-0.1,0.2-0.1,0.3,0,0.5
			c0,0.2,0.2,0.3,0.3,0.4l3.1,1.5c0.6,0.3,1.3,0.3,1.9,0c0.6-0.3,1-0.9,1.2-1.5c0-0.1,0-0.2,0-0.3c0-0.2,0.1-0.4,0.2-0.6
			c0.3-0.4,0.8-0.6,1.3-0.5c0.4,0.1,0.7,0.4,0.8,0.7c0.2,0.3,0.1,0.7,0,1.1c-0.1,0.2-0.2,0.3-0.3,0.4c-0.6,0.5-0.8,1.2-0.7,1.9
			c0.1,0.7,0.5,1.3,1.2,1.6l3.2,1.5c0.1,0,0.2,0.1,0.3,0.1c0.2,0,0.4-0.1,0.6-0.3l5.8-11.8C37.4,8.9,37.3,8.5,37,8.4z M30.6,19.9
			L28,18.6c-0.3-0.1-0.4-0.4-0.5-0.7c0-0.3,0.1-0.6,0.3-0.8c0.3-0.2,0.5-0.5,0.6-0.8c0.3-0.7,0.3-1.4,0-2.1
			c-0.3-0.7-0.9-1.2-1.6-1.4c-0.2-0.1-0.4-0.1-0.6-0.1c-0.8,0-1.5,0.4-2,1c-0.3,0.4-0.4,0.8-0.5,1.2c0,0.1,0,0.1,0,0.2
			c0,0.3-0.2,0.5-0.5,0.6c-0.3,0.1-0.6,0.1-0.8,0l-2.6-1.3l1.3-2.6c0.3-0.6,0.3-1.4-0.1-2c-0.4-0.6-1-1-1.7-1c-0.2,0-0.4,0-0.5-0.1
			c-0.3-0.2-0.6-0.5-0.7-0.8c-0.1-0.4,0-0.7,0.2-1c0.3-0.4,0.8-0.6,1.3-0.5c0.2,0.1,0.4,0.2,0.6,0.4c0.1,0.1,0.2,0.2,0.2,0.2
			c0.5,0.4,1.2,0.6,1.8,0.5c0.7-0.1,1.2-0.6,1.5-1.2l1.3-2.5l10.7,5.2L30.6,19.9z"/>
	</g>
	<linearGradient id="SVGID_1_" gradientUnits="userSpaceOnUse" x1="18.1957" y1="11.9138" x2="35.8917" y2="11.9138">
		<stop  offset="0" style="stop-color:#FFB490"/>
		<stop  offset="0.5" style="stop-color:#F18477"/>
		<stop  offset="1" style="stop-color:#D2232A"/>
	</linearGradient>
	<path class="st1" d="M35.9,9.2l-5.3,10.7L28,18.6c-0.3-0.1-0.4-0.4-0.5-0.7c0-0.3,0.1-0.6,0.3-0.8c0.3-0.2,0.5-0.5,0.6-0.8
		c0.3-0.7,0.3-1.4,0-2.1c-0.3-0.7-0.9-1.2-1.6-1.4c-0.2-0.1-0.4-0.1-0.6-0.1c-0.8,0-1.5,0.4-2,1c-0.3,0.4-0.4,0.8-0.5,1.2
		c0,0.1,0,0.1,0,0.2c0,0.3-0.2,0.5-0.5,0.6c-0.3,0.1-0.6,0.1-0.8,0l-2.6-1.3l1.3-2.6c0.3-0.6,0.3-1.4-0.1-2c-0.4-0.6-1-1-1.7-1
		c-0.2,0-0.4,0-0.5-0.1c-0.3-0.2-0.6-0.5-0.7-0.8c-0.1-0.4,0-0.7,0.2-1c0.3-0.4,0.8-0.6,1.3-0.5c0.2,0.1,0.4,0.2,0.6,0.4
		c0.1,0.1,0.2,0.2,0.2,0.2c0.5,0.4,1.2,0.6,1.8,0.5c0.7-0.1,1.2-0.6,1.5-1.2l1.3-2.5L35.9,9.2z"/>
</g>
</svg>
