<?xml version="1.0" encoding="utf-8"?>
<!-- Generator: Adobe Illustrator 27.0.1, SVG Export Plug-In . SVG Version: 6.00 Build 0)  -->
<svg version="1.1" id="Layer_1" xmlns="http://www.w3.org/2000/svg" xmlns:xlink="http://www.w3.org/1999/xlink" x="0px" y="0px"
	 viewBox="0 0 40 40" style="enable-background:new 0 0 40 40;" xml:space="preserve">
<style type="text/css">
	.st0{fill:#36080A;}
	.st1{fill:url(#SVGID_1_);}
	.st2{fill:url(#SVGID_00000114068991609496382590000008779336191268522636_);}
</style>
<g>
	<path class="st0" d="M38.5,22l-0.1-0.3c-0.1-0.6-0.6-2.6-1.1-4.6l-0.6-2.5h0l0-0.1c0-0.1-0.1-0.3-0.1-0.4c0-0.1-0.1-0.2-0.1-0.3
		c-0.1-2.1-1-4-2.5-5.5c-1.6-1.6-3.7-2.5-6-2.5c-2.3,0-4.4,0.9-6,2.5L20,10.4l-2.1-2.1c-1.6-1.6-3.7-2.5-6-2.5c-2.3,0-4.4,0.9-6,2.5
		c-0.8,0.8-1.3,1.6-1.8,2.6c-0.4,0.9-0.6,1.9-0.7,3c0,0.1-0.1,0.2-0.1,0.3c0,0.1-0.1,0.2-0.1,0.3l-0.5,1.9c-0.3,1.2-0.6,2.7-0.9,3.8
		c-0.2,0.7-0.3,1.2-0.3,1.5L1.5,22l0,0.1c-0.2,1.1-0.8,3.4,0.4,5.8c0.3,0.6,0.7,1.2,1.3,1.8c1.3,1.3,2.8,2,4.4,2
		c1.6,0,3.2-0.8,4.5-2.1l1.6-1.6l6,6c0.1,0.1,0.2,0.2,0.4,0.2c0.2,0,0.3-0.1,0.4-0.2l6-6l1.6,1.6c0.9,0.8,2.3,1.9,4.1,2.1
		c0.2,0,0.3,0,0.5,0c1.5,0,3-0.7,4.3-2C39.7,26.8,38.9,23.3,38.5,22z M11.2,28.8c-1.1,1.1-2.4,1.7-3.7,1.7c-1.2,0-2.4-0.6-3.5-1.7
		c-2.4-2.4-1.7-5.5-1.4-6.6L2.6,22c0.1-0.5,0.6-2.7,1.1-4.8l0.1-0.3l0.1,0.3c0.4,1.2,1.1,2.2,2,3.1c0.1,0.1,0.3,0.2,0.4,0.2
		c0.1,0,0.3-0.1,0.4-0.2l5.1-5.1c0.1-0.1,0.2-0.2,0.4-0.2v0h0.1c0.2,0,0.4,0.1,0.5,0.2c0.1,0.1,0.2,0.3,0.2,0.5s-0.1,0.4-0.2,0.5
		l-4.5,4.5c-0.2,0.2-0.2,0.6,0,0.8c0.1,0.1,0.3,0.2,0.4,0.2c0.2,0,0.3-0.1,0.4-0.2l5.4-5.4c0.1-0.1,0.2-0.2,0.4-0.2v0H15
		c0.2,0,0.4,0.1,0.5,0.2c0.1,0.1,0.2,0.3,0.2,0.5c0,0.2-0.1,0.4-0.2,0.5l-5.7,5.7c-0.2,0.2-0.2,0.6,0,0.8c0.1,0.1,0.2,0.2,0.4,0.2
		c0.2,0,0.3-0.1,0.4-0.2l4.4-4.4c0.1-0.1,0.3-0.2,0.5-0.2s0.4,0.1,0.5,0.2c0.1,0.1,0.2,0.3,0.2,0.5s-0.1,0.4-0.2,0.5l-5,5
		c-0.1,0.1-0.2,0.2-0.2,0.4c0,0.2,0.1,0.3,0.2,0.4c0.1,0.1,0.2,0.2,0.4,0.2c0.1,0,0.3-0.1,0.4-0.2l4-4c0.1-0.1,0.3-0.2,0.5-0.2
		s0.4,0.1,0.5,0.2c0.1,0.1,0.2,0.3,0.2,0.5s-0.1,0.4-0.2,0.5L11.2,28.8z M20,32.8l-5.6-5.6l3.3-3.3c0.4-0.4,0.5-0.8,0.5-1.3
		s-0.2-1-0.5-1.3c-0.1-0.1-0.3-0.3-0.5-0.4l-0.1,0l0.1-0.1c0.2-0.3,0.3-0.7,0.3-1c0-0.5-0.2-1-0.5-1.3c-0.1-0.1-0.3-0.2-0.5-0.4
		L16.3,18l0.1-0.1c0.3-0.4,0.5-0.8,0.5-1.2c0-0.5-0.2-1-0.5-1.3C16,15,15.5,14.8,15,14.8H15c-0.3,0-0.5,0.1-0.8,0.2l-0.1,0.1l0-0.1
		c-0.1-0.2-0.2-0.4-0.4-0.6c-0.4-0.3-0.8-0.5-1.3-0.5h-0.1c-0.5,0-0.9,0.2-1.2,0.5l-4.7,4.7L6.3,19c-1.1-1.3-1.7-3-1.7-4.7
		c0-2,0.8-3.8,2.1-5.2C8.1,7.8,10,7,11.9,7c2,0,3.8,0.8,5.2,2.1l2.5,2.5c0.1,0.1,0.2,0.2,0.4,0.2c0.2,0,0.3-0.1,0.4-0.2l2.5-2.5
		C24.3,7.7,26.1,7,28.1,7c2,0,3.8,0.8,5.2,2.2c1.4,1.4,2.1,3.2,2.1,5.2c0,1.7-0.6,3.4-1.7,4.7l-0.1,0.1L29,14.4
		c-0.3-0.3-0.8-0.5-1.2-0.5h-0.1c-0.5,0-0.9,0.2-1.3,0.5c-0.1,0.2-0.3,0.3-0.4,0.6l0,0.1L25.8,15c-0.3-0.1-0.5-0.2-0.8-0.2H25
		c-0.5,0-1,0.2-1.3,0.5c-0.3,0.3-0.5,0.8-0.5,1.2v0.1c0,0.5,0.2,0.9,0.5,1.2l0.1,0.1L23.5,18c-0.2,0.1-0.3,0.2-0.5,0.4
		c-0.3,0.3-0.5,0.8-0.5,1.2v0.1c0,0.4,0.1,0.7,0.3,1l0.1,0.1l-0.1,0c-0.2,0.1-0.4,0.2-0.5,0.4c-0.3,0.4-0.5,0.8-0.5,1.3
		c0,0.5,0.2,0.9,0.5,1.3l3.3,3.3L20,32.8z M36,28.9c-1.1,1.1-2.3,1.6-3.5,1.6c-0.1,0-0.2,0-0.3,0c-1.5-0.1-2.7-1-3.4-1.8L23,23
		c-0.1-0.1-0.2-0.3-0.2-0.5c0-0.2,0.1-0.4,0.2-0.5c0.1-0.1,0.3-0.2,0.5-0.2c0.2,0,0.3,0.1,0.5,0.2l4,4c0.1,0.1,0.2,0.2,0.4,0.2
		c0.2,0,0.3-0.1,0.4-0.2c0.1-0.1,0.2-0.2,0.2-0.4c0-0.2-0.1-0.3-0.2-0.4l-5-5c-0.1-0.1-0.2-0.3-0.2-0.5v-0.1h0
		c0-0.1,0.1-0.3,0.2-0.4c0.1-0.1,0.3-0.2,0.5-0.2s0.4,0.1,0.5,0.2l4.4,4.4c0.1,0.1,0.2,0.2,0.4,0.2c0.2,0,0.3-0.1,0.4-0.2
		c0.1-0.1,0.2-0.2,0.2-0.4c0-0.2-0.1-0.3-0.2-0.4l-5.6-5.7c-0.1-0.1-0.2-0.3-0.2-0.5v-0.1h0c0-0.1,0.1-0.3,0.2-0.4
		c0.1-0.1,0.3-0.2,0.5-0.2H25v0c0.2,0,0.3,0.1,0.4,0.2l5.4,5.4c0.1,0.1,0.3,0.2,0.4,0.2c0.1,0,0.3-0.1,0.4-0.2
		c0.1-0.1,0.2-0.3,0.2-0.4c0-0.1-0.1-0.3-0.2-0.4l-4.5-4.5C27,16.1,27,15.9,27,15.7s0.1-0.4,0.2-0.5c0.1-0.1,0.3-0.2,0.5-0.2h0.1v0
		c0.1,0,0.3,0.1,0.4,0.2l5.1,5.1c0.1,0.1,0.3,0.2,0.4,0.2c0.2,0,0.3-0.1,0.4-0.2c0.9-0.9,1.5-1.9,2-3.1l0.1-0.3l0.1,0.3
		c0.5,2,1,4.2,1.1,4.8l0.1,0.3c0.1,0.5,0.3,1.3,0.3,2.3C37.7,26.2,37.2,27.7,36,28.9z"/>
	<linearGradient id="SVGID_1_" gradientUnits="userSpaceOnUse" x1="4.59" y1="19.885" x2="35.41" y2="19.885">
		<stop  offset="0" style="stop-color:#FFB490"/>
		<stop  offset="0.5" style="stop-color:#F18477"/>
		<stop  offset="1" style="stop-color:#D2232A"/>
	</linearGradient>
	<path class="st1" d="M35.4,14.3c0,1.7-0.6,3.4-1.7,4.7l-0.1,0.1L29,14.4c-0.3-0.3-0.8-0.5-1.2-0.5h-0.1c-0.5,0-0.9,0.2-1.3,0.5
		c-0.1,0.2-0.3,0.3-0.4,0.6l0,0.1L25.8,15c-0.3-0.1-0.5-0.2-0.8-0.2H25c-0.5,0-1,0.2-1.3,0.5c-0.3,0.3-0.5,0.8-0.5,1.2v0.1
		c0,0.5,0.2,0.9,0.5,1.2l0.1,0.1L23.5,18c-0.2,0.1-0.3,0.2-0.5,0.4c-0.3,0.3-0.5,0.8-0.5,1.2v0.1c0,0.4,0.1,0.7,0.3,1l0.1,0.1
		l-0.1,0c-0.2,0.1-0.4,0.2-0.5,0.4c-0.3,0.4-0.5,0.8-0.5,1.3c0,0.5,0.2,0.9,0.5,1.3l3.3,3.3L20,32.8l-5.6-5.6l3.3-3.3
		c0.4-0.4,0.5-0.8,0.5-1.3s-0.2-1-0.5-1.3c-0.1-0.1-0.3-0.3-0.5-0.4l-0.1,0l0.1-0.1c0.2-0.3,0.3-0.7,0.3-1c0-0.5-0.2-1-0.5-1.3
		c-0.1-0.1-0.3-0.2-0.5-0.4L16.3,18l0.1-0.1c0.3-0.4,0.5-0.8,0.5-1.2c0-0.5-0.2-1-0.5-1.3C16,15,15.5,14.8,15,14.8H15
		c-0.3,0-0.5,0.1-0.8,0.2l-0.1,0.1l0-0.1c-0.1-0.2-0.2-0.4-0.4-0.6c-0.4-0.3-0.8-0.5-1.3-0.5h-0.1c-0.5,0-0.9,0.2-1.2,0.5l-4.7,4.7
		L6.3,19c-1.1-1.3-1.7-3-1.7-4.7c0-2,0.8-3.8,2.1-5.2C8.1,7.8,10,7,11.9,7c2,0,3.8,0.8,5.2,2.1l2.5,2.5c0.1,0.1,0.2,0.2,0.4,0.2
		c0.2,0,0.3-0.1,0.4-0.2l2.5-2.5C24.3,7.7,26.1,7,28.1,7c2,0,3.8,0.8,5.2,2.2C34.7,10.5,35.4,12.4,35.4,14.3z"/>
	
		<linearGradient id="SVGID_00000078732240495453531500000015471270158573566114_" gradientUnits="userSpaceOnUse" x1="4.59" y1="19.885" x2="35.41" y2="19.885">
		<stop  offset="0" style="stop-color:#FFB490"/>
		<stop  offset="0.5" style="stop-color:#F18477"/>
		<stop  offset="1" style="stop-color:#D2232A"/>
	</linearGradient>
	<path style="fill:url(#SVGID_00000078732240495453531500000015471270158573566114_);" d="M17.8,23.9c0.4-0.4,0.5-0.8,0.5-1.3
		s-0.2-1-0.5-1.3c-0.1-0.1-0.3-0.3-0.5-0.4l-0.1,0l0.1-0.1c0.2-0.3,0.3-0.7,0.3-1c0-0.5-0.2-1-0.5-1.3c-0.1-0.1-0.3-0.2-0.5-0.4
		L16.3,18l0.1-0.1c0.3-0.4,0.5-0.8,0.5-1.2c0-0.5-0.2-1-0.5-1.3C16,15,15.5,14.8,15,14.8H15c-0.3,0-0.5,0.1-0.8,0.2l-0.1,0.1l0-0.1
		c-0.1-0.2-0.2-0.4-0.4-0.6c-0.4-0.3-0.8-0.5-1.3-0.5h-0.1c-0.5,0-0.9,0.2-1.2,0.5l-4.7,4.7L6.3,19c-1.1-1.3-1.7-3-1.7-4.7
		c0-2,0.8-3.8,2.1-5.2C8.1,7.8,10,7,11.9,7c2,0,3.8,0.8,5.2,2.1l2.5,2.5c0.1,0.1,0.2,0.2,0.4,0.2c0.2,0,0.3-0.1,0.4-0.2l2.5-2.5
		C24.3,7.7,26.1,7,28.1,7c2,0,3.8,0.8,5.2,2.2c1.4,1.4,2.1,3.2,2.1,5.2c0,1.7-0.6,3.4-1.7,4.7l-0.1,0.1L29,14.4
		c-0.3-0.3-0.8-0.5-1.2-0.5h-0.1c-0.5,0-0.9,0.2-1.3,0.5c-0.1,0.2-0.3,0.3-0.4,0.6l0,0.1L25.8,15c-0.3-0.1-0.5-0.2-0.8-0.2H25
		c-0.5,0-1,0.2-1.3,0.5c-0.3,0.3-0.5,0.8-0.5,1.2v0.1c0,0.5,0.2,0.9,0.5,1.2l0.1,0.1L23.5,18c-0.2,0.1-0.3,0.2-0.5,0.4
		c-0.3,0.3-0.5,0.8-0.5,1.2v0.1c0,0.4,0.1,0.7,0.3,1l0.1,0.1l-0.1,0c-0.2,0.1-0.4,0.2-0.5,0.4c-0.3,0.4-0.5,0.8-0.5,1.3
		c0,0.5,0.2,0.9,0.5,1.3l3.3,3.3L20,32.8l-5.6-5.6L17.8,23.9z"/>
</g>
</svg>
