<?xml version="1.0" encoding="utf-8"?>
<!-- Generator: Adobe Illustrator 27.0.1, SVG Export Plug-In . SVG Version: 6.00 Build 0)  -->
<svg version="1.1" id="Layer_1" xmlns="http://www.w3.org/2000/svg" xmlns:xlink="http://www.w3.org/1999/xlink" x="0px" y="0px"
	 viewBox="0 0 40 40" style="enable-background:new 0 0 40 40;" xml:space="preserve">
<style type="text/css">
	.st0{fill:url(#SVGID_1_);}
	.st1{fill:url(#SVGID_00000054233361483267628350000011904682965099519921_);}
	.st2{fill:#36080A;}
</style>
<g>
	
		<linearGradient id="SVGID_1_" gradientUnits="userSpaceOnUse" x1="22.8371" y1="33.6293" x2="11.944" y2="19.6179" gradientTransform="matrix(-1 0 0 1 43.6729 0)">
		<stop  offset="0" style="stop-color:#FFB490"/>
		<stop  offset="0.5" style="stop-color:#F18477"/>
		<stop  offset="1" style="stop-color:#D2232A"/>
	</linearGradient>
	<circle class="st0" cx="26.4" cy="26.5" r="8.9"/>
	
		<linearGradient id="SVGID_00000101819581754929560230000009712704530619487379_" gradientUnits="userSpaceOnUse" x1="40.4434" y1="37.281" x2="35.075" y2="30.6106" gradientTransform="matrix(-1 0 0 1 43.6729 0)">
		<stop  offset="0" style="stop-color:#FFB490"/>
		<stop  offset="0.5" style="stop-color:#F18477"/>
		<stop  offset="1" style="stop-color:#D2232A"/>
	</linearGradient>
	<circle style="fill:url(#SVGID_00000101819581754929560230000009712704530619487379_);" cx="5.6" cy="34.4" r="4.3"/>
	<g>
		<path class="st2" d="M1.1,34.3c0,2.6,2.1,4.7,4.7,4.7s4.7-2.1,4.7-4.7c0-2.2-1.6-4.1-3.7-4.6v-7.5h7.8c-0.5,1.3-0.7,2.7-0.7,4.2
			c0,6.9,5.6,12.5,12.5,12.5c6.9,0,12.5-5.6,12.5-12.5c0-5.9-4.2-10.9-9.7-12.2v-2.1c0,0,0,0,0,0v-4c0,0,0,0,0,0V5.2l3.5-3.5L31.9,1
			l-3.6,3.6c-0.1,0.1-0.2,0.2-0.2,0.4v2.6H17.9c-2.5,0-4.5,2-4.5,4.5c0,0.3,0.2,0.5,0.5,0.5h14.2v1.4c-0.6-0.1-1.2-0.1-1.8-0.1
			c-2.7,0-5.2,0.9-7.2,2.3h-9.1c-2.4,0-4.3,1.9-4.3,4.3v9C3.1,29.6,1.1,31.7,1.1,34.3z M28.2,11.5H14.5c0.3-1.6,1.7-2.9,3.4-2.9
			h10.3V11.5z M14.9,26.5c0-6.3,5.1-11.5,11.5-11.5c6.3,0,11.5,5.1,11.5,11.5c0,6.3-5.1,11.5-11.5,11.5
			C20.1,37.9,14.9,32.8,14.9,26.5z M6.8,21.2v-0.6c0-1.8,1.5-3.3,3.3-3.3h7.8c-1.2,1.1-2.1,2.4-2.8,3.9H6.8z M2.1,34.3
			c0-2,1.6-3.6,3.6-3.6c2,0,3.6,1.6,3.6,3.6s-1.6,3.6-3.6,3.6S2.1,36.3,2.1,34.3z"/>
		<path class="st2" d="M3.7,34.3c0,1.1,0.9,2,2,2c1.1,0,2-0.9,2-2c0-1.1-0.9-2-2-2C4.6,32.3,3.7,33.2,3.7,34.3z M4.8,34.3
			c0-0.5,0.4-1,1-1c0.5,0,1,0.4,1,1c0,0.5-0.4,1-1,1C5.2,35.3,4.8,34.8,4.8,34.3z"/>
		<path class="st2" d="M16.9,26.5c0,5.2,4.3,9.5,9.5,9.5s9.5-4.3,9.5-9.5c0-5.2-4.3-9.5-9.5-9.5S16.9,21.2,16.9,26.5z M18,26.5
			c0-4.6,3.8-8.4,8.4-8.4s8.4,3.8,8.4,8.4c0,4.6-3.8,8.4-8.4,8.4S18,31.1,18,26.5z"/>
		<path class="st2" d="M23.1,26.5c0,1.8,1.5,3.3,3.3,3.3s3.3-1.5,3.3-3.3s-1.5-3.3-3.3-3.3S23.1,24.6,23.1,26.5z M24.2,26.5
			c0-1.2,1-2.2,2.2-2.2c1.2,0,2.2,1,2.2,2.2c0,1.2-1,2.2-2.2,2.2S24.2,27.7,24.2,26.5z"/>
	</g>
</g>
</svg>
