<?xml version="1.0" encoding="utf-8"?>
<!-- Generator: Adobe Illustrator 27.0.1, SVG Export Plug-In . SVG Version: 6.00 Build 0)  -->
<svg version="1.1" id="Layer_1" xmlns="http://www.w3.org/2000/svg" xmlns:xlink="http://www.w3.org/1999/xlink" x="0px" y="0px"
	 viewBox="0 0 40 40" style="enable-background:new 0 0 40 40;" xml:space="preserve">
<style type="text/css">
	.st0{fill:#36080A;}
	.st1{fill:url(#SVGID_1_);}
	.st2{fill:url(#SVGID_00000121243413786613876970000000162425337150637715_);}
</style>
<g>
	<path class="st0" d="M35,6.4c-3.9-3.9-10.3-3.9-14.2,0L20,7.2l-0.8-0.8c0,0,0,0,0,0C15.2,2.4,8.9,2.4,5,6.4C3,8.2,2,10.8,2,13.5
		c0,2.7,1,5.2,3,7.1l1.6,1.6L5.8,23c-0.4,0.4-0.5,0.8-0.5,1.4c0,0.1,0,0.2,0,0.4c0.1,0.6,0.4,1.2,0.9,1.8c0.6,0.6,1.4,0.9,2.1,0.9
		c0,0,0.1,0,0.1,0c0,0.2,0,0.3,0,0.5c0.1,0.6,0.4,1.2,0.9,1.8c0.6,0.6,1.4,0.9,2.1,0.9c0,0,0.1,0,0.1,0c0,0.2,0,0.3,0,0.5
		c0.1,0.6,0.4,1.2,0.9,1.8c0.6,0.6,1.4,0.9,2.1,0.9c0.2,0,0.4,0,0.6-0.1c0,0.7,0.4,1.4,0.9,1.9c0.6,0.6,1.4,0.9,2.1,0.9
		c0.3,0,0.5-0.1,0.8-0.2c0.2-0.1,0.3-0.1,0.4-0.2c0.1,0,0.1-0.1,0.2-0.1l0.4-0.5l0.5,0.5c0,0,0,0,0,0c0.1,0,0.1,0.1,0.1,0.1
		c0.4,0.3,0.8,0.4,1.2,0.4c0.7,0,1.5-0.3,2.1-0.9c0.5-0.5,0.8-1.1,0.9-1.8c0-0.1,0-0.1,0-0.2c0.2,0.1,0.4,0.1,0.6,0.1
		c0.3,0,0.7-0.1,1-0.2c0.4-0.2,0.8-0.4,1.1-0.7c0.5-0.5,0.8-1.1,0.9-1.8c0-0.2,0-0.4,0-0.5c0,0,0.1,0,0.1,0c0.7,0,1.5-0.3,2.1-0.9
		c0.5-0.5,0.8-1.1,0.9-1.8c0-0.2,0-0.4,0-0.5c0,0,0.1,0,0.2,0c0.7,0,1.5-0.3,2.1-0.9c0.6-0.6,0.9-1.4,0.9-2.1c0-0.5-0.2-1-0.5-1.4
		l-0.9-0.8l1.6-1.6c0,0,0,0,0,0c1.9-1.9,2.9-4.4,2.9-7.1C38,10.8,37,8.2,35,6.4z M8.9,26.2c-0.5,0.5-1.4,0.3-2.1-0.4
		c-0.3-0.3-0.6-0.8-0.6-1.2c-0.1-0.4,0-0.7,0.2-0.9l4.8-4.8c0.2-0.2,0.4-0.2,0.7-0.2c0.4,0,1,0.2,1.4,0.7c0.4,0.3,0.6,0.8,0.6,1.2
		c0,0.4,0,0.7-0.2,0.9l-3.5,3.5L8.9,26.2z M12.1,29.4c-0.4,0.4-1.4,0.3-2.1-0.4c-0.4-0.3-0.6-0.8-0.6-1.2c-0.1-0.4,0-0.7,0.2-0.9
		l1.3-1.3l3.9-3.9c0.4-0.5,1.4-0.3,2.1,0.4c0.4,0.3,0.6,0.8,0.6,1.2c0.1,0.4,0,0.7-0.2,0.9l-0.4,0.4h0L15,26.5L12.1,29.4z
		 M15.7,32.2c-0.1,0.1-0.2,0.2-0.2,0.3c-0.1,0-0.1,0.1-0.2,0.1c-0.5,0.5-1.4,0.3-2.1-0.4c-0.4-0.3-0.6-0.8-0.6-1.2
		c0-0.4,0-0.7,0.2-0.9l1.6-1.6l3.2-3.2c0.5-0.5,1.4-0.3,2.1,0.4c0.3,0.3,0.6,0.8,0.6,1.2c0.1,0.4,0,0.7-0.2,0.9L15.7,32.2z M19,35.2
		l-0.1,0.1c-0.5,0.5-1.4,0.3-2.1-0.4c-0.4-0.4-0.7-0.9-0.7-1.4c0-0.2,0-0.5,0.2-0.7l3.6-3.6c0.4-0.5,1.4-0.3,2.1,0.4
		c0.3,0.3,0.5,0.7,0.6,1.1c0,0,0,0.1,0,0.1c0.1,0.4,0,0.7-0.2,0.9L19,35.2z M23.9,33.8c-0.1,0.4-0.3,0.8-0.6,1.2
		c-0.7,0.7-1.6,0.9-2.1,0.4l-0.4-0.4l2.4-2.4c0,0,0,0,0,0l0.5,0.5c0.2,0.2,0.2,0.4,0.2,0.7C23.9,33.6,23.9,33.7,23.9,33.8z
		 M33.6,23.7c0.2,0.2,0.2,0.5,0.2,0.7c0,0.5-0.2,1-0.6,1.4c-0.7,0.7-1.6,0.8-2.1,0.4c0,0,0,0,0,0l-0.4-0.4l-4-4
		c-0.1-0.1-0.2-0.1-0.2-0.1c0,0,0,0,0,0c-0.1,0-0.2,0-0.3,0.1c0,0-0.1,0-0.1,0.1c0,0,0,0.1-0.1,0.1c-0.1,0.2-0.1,0.3,0,0.5
		c0,0,0,0.1,0.1,0.1c0,0,0,0,0,0l4.4,4.4c0.2,0.2,0.2,0.4,0.2,0.7c0,0.1,0,0.1,0,0.2c-0.1,0.4-0.3,0.9-0.6,1.2
		c-0.7,0.7-1.6,0.8-2.1,0.4L27.5,29l-0.3-0.3L23.5,25c-0.1-0.1-0.2-0.1-0.3-0.1c-0.1,0-0.3,0-0.3,0.1c0,0,0,0,0,0
		c-0.1,0.1-0.2,0.2-0.2,0.4c0,0,0,0.1,0,0.1c0,0.1,0,0.2,0.1,0.2l3.7,3.7c0,0,0,0,0,0l0.7,0.7c0.2,0.2,0.3,0.5,0.2,0.9
		c0,0.4-0.3,0.8-0.6,1.2c-0.1,0.1-0.2,0.2-0.4,0.3c-0.6,0.4-1.3,0.5-1.7,0.1l-1.1-1.1c0-0.2,0-0.5,0-0.7v0c-0.1-0.6-0.4-1.2-0.9-1.8
		s-1.1-0.8-1.7-0.9c0.2-0.4,0.3-0.8,0.2-1.3c-0.1-0.6-0.4-1.2-0.9-1.8c-0.6-0.6-1.3-0.9-1.9-0.9c0.1-0.3,0.1-0.6,0-0.9
		c-0.1-0.6-0.4-1.3-0.9-1.8c-0.8-0.8-1.8-1.1-2.7-0.9c0-0.1,0-0.1,0-0.2c-0.1-0.6-0.4-1.2-0.9-1.7c-1.1-1.1-2.6-1.3-3.5-0.4
		l-3.2,3.2l-1.6-1.6c-1.7-1.7-2.7-4-2.7-6.4C3,11,3.9,8.8,5.7,7.1c3.5-3.5,9.3-3.5,12.8,0l0.8,0.8l-4.8,4.8
		c-0.5,0.5-0.8,1.2-0.8,1.9c0,0.7,0.3,1.4,0.8,2c0.6,0.7,1.6,1,2.5,1c0.6,0,1.3-0.2,1.8-0.5c1.1-0.8,3.5-2.9,4.5-3.7L33.6,23.7z
		 M34.3,19.8l-1.6,1.7l-6.6-6.6c1.8,0.2,3.9-0.4,5-1.5c0.2-0.2,0.2-0.5,0-0.7c-0.2-0.2-0.5-0.2-0.7,0c-1.4,1.4-4.6,1.8-6,0.4
		c-0.4-0.4-0.8-0.8-0.8-0.8l0,0c0,0,0,0,0,0c-0.1-0.1-0.2-0.1-0.3-0.1c0,0,0,0,0,0c-0.1,0-0.2,0-0.3,0.1c0,0,0,0,0,0
		c0,0-3.4,3-4.7,3.9c-0.8,0.6-2.1,0.4-2.9-0.4c-0.4-0.4-0.6-0.8-0.5-1.3c0-0.4,0.2-0.9,0.5-1.2l5.2-5.2c0,0,0,0,0,0l1.2-1.2
		c3.5-3.5,9.3-3.5,12.8,0c1.7,1.7,2.7,4,2.7,6.4C37,15.9,36.1,18.1,34.3,19.8z"/>
	<linearGradient id="SVGID_1_" gradientUnits="userSpaceOnUse" x1="2.9958" y1="18.6116" x2="33.805" y2="18.6116">
		<stop  offset="0" style="stop-color:#FFB490"/>
		<stop  offset="0.5" style="stop-color:#F18477"/>
		<stop  offset="1" style="stop-color:#D2232A"/>
	</linearGradient>
	<path class="st1" d="M33.8,24.4c0,0.5-0.2,1-0.6,1.4c-0.7,0.7-1.6,0.8-2.1,0.4c0,0,0,0,0,0l-0.4-0.4l-4-4c-0.1-0.1-0.1-0.1-0.2-0.1
		c0,0,0,0,0,0c-0.1,0-0.2,0-0.3,0.1c0,0-0.1,0-0.1,0.1c0,0,0,0.1-0.1,0.1c-0.1,0.2-0.1,0.3,0,0.5c0,0,0,0.1,0.1,0.1c0,0,0,0,0,0
		l4.4,4.4c0.2,0.2,0.2,0.4,0.2,0.7c0,0.1,0,0.1,0,0.2c-0.1,0.4-0.3,0.8-0.6,1.2c-0.7,0.7-1.6,0.8-2.1,0.4L27.5,29l-0.3-0.3L23.5,25
		c-0.1-0.1-0.2-0.1-0.3-0.1c-0.1,0-0.3,0-0.3,0.1c0,0,0,0,0,0c-0.1,0.1-0.1,0.2-0.1,0.3c0,0,0,0.1,0,0.1c0,0.1,0,0.2,0.1,0.2
		l3.7,3.7c0,0,0,0,0,0l0.7,0.7c0.2,0.2,0.3,0.5,0.2,0.9c0,0.4-0.3,0.8-0.6,1.2c-0.7,0.7-1.6,0.8-2.1,0.4l-1.1-1.1c0-0.2,0-0.5,0-0.7
		c-0.1-0.6-0.4-1.3-0.9-1.8c-0.5-0.5-1.1-0.8-1.7-0.9c0.2-0.4,0.3-0.8,0.2-1.3c-0.1-0.6-0.4-1.3-0.9-1.8c-0.6-0.6-1.3-0.9-1.9-0.9
		c0.1-0.3,0.1-0.6,0-0.9c-0.1-0.6-0.4-1.3-0.9-1.8c-0.8-0.8-1.8-1.1-2.7-0.9c0-0.1,0-0.1,0-0.2c-0.1-0.6-0.4-1.2-0.9-1.7
		c-1.1-1.1-2.6-1.3-3.5-0.4l-3.2,3.2l-1.6-1.6c-1.7-1.7-2.7-4-2.7-6.4s0.9-4.7,2.7-6.4c3.5-3.5,9.3-3.5,12.8,0l0.8,0.8l-4.8,4.8
		c-0.5,0.5-0.8,1.2-0.8,1.9c0,0.7,0.3,1.4,0.8,2c0.6,0.6,1.6,1,2.5,1c0.6,0,1.3-0.2,1.8-0.5c1.1-0.8,3.5-2.9,4.5-3.7l10.4,10.4
		C33.8,23.9,33.8,24.2,33.8,24.4z"/>
	
		<linearGradient id="SVGID_00000151526252300137409850000003555463741030812296_" gradientUnits="userSpaceOnUse" x1="15.1621" y1="28.1176" x2="26.8608" y2="37.7548">
		<stop  offset="0" style="stop-color:#FFB490"/>
		<stop  offset="0.5" style="stop-color:#F18477"/>
		<stop  offset="1" style="stop-color:#D2232A"/>
	</linearGradient>
	<path style="fill:url(#SVGID_00000151526252300137409850000003555463741030812296_);" d="M23.9,33.5c0,0.1,0,0.1,0,0.2
		c-0.1,0.4-0.3,0.8-0.6,1.2c-0.7,0.7-1.6,0.9-2.1,0.4l-0.4-0.4l2.4-2.4c0,0,0,0,0,0l0.5,0.5C23.8,33,23.9,33.3,23.9,33.5z"/>
</g>
</svg>
